<?xml version='1.0' encoding='utf-8'?>
<svg xmlns="http://www.w3.org/2000/svg" version="1.1" width="720px" height="1358px" viewBox="0 0 720 1358"> <g id="layer1"> <g style="fill:rgb(0,0,0); fill-opacity:1.0; stroke-linejoin: miter"> </g> <g style="fill:rgb(0,0,0); fill-opacity:1.0; stroke-linejoin: miter"> </g> <g style="fill:rgb(0,0,0); fill-opacity:1.0; stroke-linejoin: miter"> </g> <g style="fill:rgb(0,0,0); fill-opacity:1.0; stroke-linejoin: miter"> </g> <g style="fill:rgb(0,0,0); fill-opacity:1.0; stroke-linejoin: miter"> <path d="M157.71732,798.7305L158.1547,798.7273Q159.90231,798.7077,161.62015,798.5786Q160.06741,798.6586,157.71732,798.7305"/> </g> <g style="fill:rgb(0,0,0); fill-opacity:1.0; stroke-linejoin: miter"> <path d="M241.61711,408.98868L233.46347,415.21497Q185.5312,458.35492,121.35592,538.7987L142.07565,559.52655L75.797325,643.6956Q71.58453,643.37604,63.30887,649.47424L62.13684,650.71014Q64.131226,652.9675,62.98227,653.40967Q62.170776,653.9009,58.18277,653.5779L60.36148,657.0563Q56.64081,654.7271,57.574623,662.9194Q57.360573,663.442,53.353188,662.6059Q52.30735,666.82214,49.59281,666.21466L50.460304,670.95416Q45.432407,671.38824,45.877903,676.1018Q44.07163,673.9729,42.05186,676.4531L43.696575,679.4223Q37.583076,678.2569,39.480507,684.20966L34.88212,684.975L36.097786,690.0914Q32.089394,687.7139,30.86338,689.1461Q27.223852,692.8191,31.169415,697.5821Q29.506176,696.41833,27.559912,696.3747Q28.406656,698.217,23.380348,699.0268L20.92826,703.41284Q24.889627,705.62854,25.002298,706.9636Q19.350655,706.20123,19.025063,707.75836Q17.8859,709.66156,20.623695,714.94934L16.260046,713.7565Q11.15958,722.56256,11.154484,724.36774Q10.876622,727.2189,22.665386,733.0169Q24.73338,733.17944,26.504316,732.49713Q31.008007,726.28955,32.654156,727.5865Q31.490372,744.9982,36.805164,748.09406Q41.211597,750.9619,60.936028,744.5113Q62.64715,744.5242,65.27688,746.68774Q69.37438,752.37585,69.427185,757.2815L68.464966,763.9085Q64.552216,768.0318,63.580597,773.04126L65.31379,796.3057L72.58104,806.2396Q83.67184,812.5575,96.49533,817.92944Q113.05253,824.0317,145.39839,814.81Q118.69161,820.7983,89.48818,811.9428Q76.57979,807.26013,69.58179,788.675Q100.79634,798.6534,107.00912,794.13556Q134.3718,809.2049,152.89658,807.31055L156.75888,805.93036Q149.26277,800.4275,151.3724,787.733Q156.8003,775.20844,161.91536,776.1437Q172.18214,777.6649,177.03438,780.53357L199.45137,798.7541L200.22456,793.24805L186.11574,781.2671Q176.68617,774.92773,169.29964,774.6371Q139.37294,775.3919,147.99422,804.77924Q134.55685,802.9006,123.83235,799.0538Q113.53353,794.2968,113.68752,792.91724Q130.99562,782.8932,117.820694,774.35474Q104.12629,767.23395,98.4817,767.2745Q84.84335,767.8491,68.91824,777.1606Q67.9668,773.1063,68.519745,770.7357Q72.39329,765.0074,72.27558,761.7143Q71.71984,750.4053,67.59826,744.84595Q65.780205,742.3733,60.399162,741.65326L41.598072,745.86945L39.8113,745.47186Q33.077866,744.2273,34.158398,736.79895Q36.524822,723.231,47.255077,711.7838Q52.3803,712.0578,50.68327,707.5218L53.94087,707.4395L53.954296,703.4386L57.972763,703.11523L56.78871,698.836L61.509018,698.8573L60.43199,694.44666L64.73436,694.0714Q63.53203,690.0143,68.64976,689.1348L67.07777,684.45734Q70.69291,686.96625,72.37504,685.2344Q73.309,685.3481,69.4535,680.00604Q74.76243,680.867,75.81663,679.6288L72.59455,672.1387L78.0123,676.57776L76.243256,669.128L83.05771,671.518L82.58365,667.7822Q85.999664,667.18945,86.493164,665.3619L83.34531,660.9889Q88.16055,663.034,89.39285,661.542Q89.08127,660.23157,85.87912,656.9133Q86.96237,656.75183,97.46437,644.0882L155.20966,571.5989Q156.17145,570.7278,157.5163,571.5938L178.00389,585.78326Q179.33476,585.9559,181.49248,584.1319Q217.707,545.02844,253.98874,489.91672Q293.29977,427.94952,285.84045,422.27496Q285.12726,411.42294,265.95657,402.55508Q255.79031,399.55112,241.61711,408.98868 Z M32.78114,724.44104L32.78874,724.4364Q32.844067,724.3985,32.98588,724.37805Q33.08415,724.37665,33.112347,724.38416Q33.1468,724.40247,33.181072,724.4208Q33.276104,724.51526,33.307842,724.5852Q33.375347,724.7117,33.41731,724.9505Q33.47642,725.39105,33.394695,725.7759Q33.305004,726.25574,33.074474,726.44196Q32.99812,726.47754,32.92216,726.44257Q32.856304,726.40967,32.78361,726.31354L32.670605,726.1316L32.586254,725.95386L32.522198,725.7723Q32.460796,725.5364,32.46568,725.5139Q32.411694,725.1468,32.49809,724.8566Q32.56071,724.6248,32.78114,724.44104 M77.80692,773.18536L77.99561,773.0557Q79.92703,771.30347,85.92813,770.23285Q93.37105,769.1775,97.693794,770.08307Q97.226875,774.8455,96.86189,776.5038Q96.76088,776.5801,97.44539,778.84564Q98.942215,782.65826,100.80574,785.8978Q102.42049,788.7458,105.33578,792.2487Q105.61532,792.6683,105.55245,792.802Q97.67415,793.2651,87.91578,791.23285Q84.22132,790.37634,80.21894,788.7889Q78.45582,788.076,74.912056,785.82324Q73.012825,784.2539,72.40473,783.51605Q70.87915,781.05,71.13605,780.87103Q71.24725,780.3594,72.69251,778.0916Q73.32261,777.2015,74.10081,776.35944Q75.65736,774.6758,77.80692,773.18536 M103.519966,772.12756L103.593575,772.091Q105.41657,771.9745,106.616035,772.4014Q108.533394,773.10657,111.094246,774.69055Q113.83149,776.4817,114.6551,777.2938L115.6551,778.439L116.30018,779.48456L116.79041,780.53296Q118.865555,786.97217,112.257225,790.68665Q111.43722,791.015,111.11715,790.72107Q110.78097,790.5314,109.653404,789.1051Q108.40273,787.52466,106.242805,784.0681Q105.06812,782.11127,104.196846,780.2468Q101.33796,773.9378,103.519966,772.12756"/> </g> <g style="fill:rgb(0,0,0); fill-opacity:1.0; stroke-linejoin: miter"> </g> <g style="fill:rgb(0,0,0); fill-opacity:1.0; stroke-linejoin: miter"> </g> <g style="fill:rgb(0,0,0); fill-opacity:1.0; stroke-linejoin: miter"> <path d="M316.62296,710.74713L316.7316,710.7082Q317.55493,710.4302,317.90552,710.60944Q318.0348,710.68726,318.15625,710.852L318.27655,711.0411Q318.3958,711.25366,318.51318,711.5699Q318.56946,711.6543,318.87354,712.7835L319.4995,715.6311Q319.55774,715.9164,319.89008,717.1286Q320.16193,718.0772,320.39917,718.7158Q320.51562,719.02936,320.61072,719.2314Q320.6659,719.3588,320.85083,719.64996L320.97107,719.9141Q321.07544,720.1856,321.11975,720.46136Q321.27637,721.6835,320.64352,722.036Q320.51523,722.0848,320.35953,722.05493L320.04056,721.8539L319.5657,721.38495Q319.01328,720.7823,318.28946,719.8439Q316.772,717.86725,315.41348,715.75116Q314.76932,714.7432,314.37576,714.0009L314.07986,713.37537L313.97952,712.9827L314.00894,712.79846Q313.9811,712.71136,314.39627,712.18805Q315.28848,711.27106,316.62296,710.74713 M322.33496,708.2819L322.45862,708.2397Q323.20813,707.9851,324.18408,708.2335Q324.5813,708.4355,324.61536,708.5554Q324.7315,708.7141,324.8197,708.972Q324.87433,709.0173,325.04578,710.0417Q325.14954,710.81976,325.32983,712.85614Q325.47552,713.9751,325.73486,715.1657Q325.78943,715.4809,326.15283,716.85846Q326.30206,717.39307,326.4558,717.8538Q326.896,719.07465,326.9673,719.3384Q327.07782,719.63367,327.27856,720.58636Q327.34192,720.8164,327.3391,721.4401Q327.2989,721.8778,327.07153,721.96155Q326.68268,722.10284,325.87415,721.2372Q324.88818,720.0711,324.32642,719.08594Q323.5417,717.8421,322.68378,715.93665L322.3045,715.0407Q321.94006,714.1395,321.65686,713.28546Q321.3739,712.4318,321.19635,711.6965L321.05115,711.0086Q320.93536,710.359,320.96045,709.934Q321.19116,708.6937,322.33496,708.2819 M289.82855,727.5545L289.96588,727.5131Q290.40106,727.4116,290.90143,727.6168Q291.47247,727.9068,291.68475,728.18744L294.9278,731.7824Q295.47247,732.3902,295.88153,732.90314Q296.5252,733.7388,296.53955,733.8625Q296.64484,734.04065,296.4195,734.152L296.04315,734.1575L295.4958,733.98584Q294.8629,733.7259,294.0429,733.2231L293.21527,732.68756Q292.35992,732.10486,291.55048,731.4461Q290.741,730.7875,290.13242,730.16376L289.61276,729.5764L289.2711,729.06213L289.1462,728.6487Q289.18137,727.78625,289.82855,727.5545 M285.5333,730.9419L285.69382,730.9086Q286.17465,730.86707,287.1843,731.7316Q288.0355,732.432,290.39114,734.8236Q291.12448,735.55414,291.77133,736.50055L291.88766,736.7214Q291.97733,736.92316,291.96054,737.04724L291.91708,737.1518Q291.80722,737.24084,291.7499,737.2357Q291.2806,737.4154,288.40622,735.9562Q287.64755,735.54956,287.02713,735.13385L286.4459,734.7202Q285.90097,734.306,285.51987,733.90674Q285.13858,733.50714,284.93747,733.1379L284.78555,732.7799L284.73196,732.4448Q284.99777,731.1887,285.5333,730.9419 M299.76492,720.19904L300.07773,720.1095Q300.9125,719.92096,301.48782,721.0767L301.69925,721.5096Q301.91238,721.9831,302.15482,722.6285Q302.71927,724.218,303.17484,725.33417Q303.69247,726.5956,304.24393,727.73114Q304.79526,728.8665,305.27286,729.64124L305.4987,729.9878Q305.99814,730.6212,306.40274,731.21344Q306.5341,731.3839,306.78384,731.91003Q307.00674,732.4817,306.6945,732.59155Q306.4987,732.663,306.11746,732.55853Q306.02347,732.6089,304.62167,731.87604Q303.38712,731.1732,301.71756,729.88617Q297.76422,726.73846,295.68427,724.14825Q295.3166,723.4909,296.36798,722.48505Q298.75443,720.58624,299.76492,720.19904 M280.8397,736.3899L281.0159,736.344Q281.394,736.2832,281.92862,736.46686Q282.62192,736.75,282.7966,736.8797Q283.55612,737.2926,285.23056,738.80133Q285.6926,739.21545,285.99448,739.5298L286.2595,739.8236Q286.48557,740.09406,286.56857,740.2899L286.6185,740.4713L286.60257,740.62366L286.5234,740.75104Q286.4127,740.8663,286.1868,740.94836Q285.6335,741.0816,284.28732,740.476L283.63687,740.1678Q282.96548,739.8293,282.3265,739.4364Q281.68753,739.0434,281.19626,738.66077L280.77078,738.297L280.47684,737.9709L280.3431,737.6987Q280.2048,736.6172,280.8397,736.3899 M330.7379,706.3863L330.8344,706.3507Q333.69946,705.33014,337.49878,704.9174Q339.1925,704.7485,340.06146,704.88556Q340.6692,705.0224,340.70007,705.3071Q340.82178,705.9444,340.60425,706.5787Q340.58673,706.8395,339.58313,709.38116Q339.24854,710.2987,339.00183,711.21826Q338.82544,711.6654,338.45166,714.01855Q338.34106,714.4671,338.27136,716.96375Q338.27112,717.9798,338.34772,719.05853Q338.62048,721.8261,338.5962,722.81244Q338.5194,724.40045,338.1808,724.339Q337.91687,724.52496,337.11688,723.6782Q336.49585,723.11163,334.49365,720.1892Q333.67664,718.9294,332.92706,717.57166Q331.1443,714.15533,330.93896,713.49347Q330.37268,712.15137,329.98364,710.9289L329.65015,709.7582Q329.364,708.608,329.3318,707.79Q329.3175,707.31903,329.55353,707.04004Q329.62085,706.82745,330.7379,706.3863 M275.45908,742.29364L275.53842,742.26904Q275.9611,742.1582,276.59457,742.4689Q277.8325,743.1704,278.6904,743.83026Q278.96994,744.01465,279.86374,744.8065Q280.18692,745.1115,280.3851,745.3592Q280.79135,745.8719,280.5342,745.9778L280.2833,745.99884L279.90598,745.93726L279.42953,745.8055Q278.90317,745.6382,278.28732,745.38025Q277.67105,745.12164,277.0731,744.82104L276.5068,744.5221Q275.9586,744.2188,275.5909,743.9467L275.29562,743.6949L275.14474,743.48334Q275.0969,743.3953,275.04276,743.0562Q275.02158,742.7968,275.1072,742.6137Q275.1495,742.52264,275.21518,742.45264Q275.23514,742.4035,275.45908,742.29364 M306.6379,715.4649L306.94608,715.38324Q307.80765,715.2021,308.74277,716.60614Q308.87302,716.7099,309.82864,718.53595L311.11795,721.2512L311.6047,722.1711Q312.132,723.1251,312.78128,724.1578Q315.45853,728.43207,318.98282,732.2643Q319.4318,732.9054,319.0059,733.0506Q317.38406,733.3501,313.90665,730.5545Q309.1876,726.76996,306.43887,722.7361L305.65866,721.4881L305.05765,720.3147L304.6531,719.23834L304.46274,718.2811L304.5037,717.46515Q304.55496,717.2623,304.76114,716.9814Q305.50107,716.0026,306.6379,715.4649 M269.77084,748.2673L269.92148,748.2245Q270.2368,748.1612,270.6301,748.2713Q271.13205,748.4459,271.24777,748.532Q271.79416,748.866,271.9125,748.9834Q271.90164,748.937,272.8452,749.84515Q273.13574,750.1285,273.30914,750.3296L273.45526,750.51575Q273.57275,750.6837,273.58368,750.8011L273.5697,750.9111L273.5058,751.006L273.3938,751.0911Q273.2577,751.17145,273.03223,751.2533L272.74054,751.30566L272.38037,751.2824L271.97046,751.19403L271.52954,751.0507L271.07635,750.8629Q270.6167,750.65247,270.2069,750.3935Q269.79706,750.1346,269.51144,749.8678L269.2756,749.6095L269.1392,749.3678L269.12082,749.15295Q269.26462,748.4495,269.77084,748.2673 M255.24231,695.3034L255.18219,695.3614Q252.49332,716.425,272.86594,740.6944Q270.6877,743.4228,258.34897,726.2734Q259.15524,735.16705,267.61514,747.65265Q264.2042,748.1323,254.67004,739.38257Q248.65723,734.88745,243.2778,710.59924Q242.02023,720.97284,245.67172,730.5852Q248.4483,738.1595,250.48792,741.3419Q252.9422,745.65063,259.6745,752.72144Q260.6183,754.2476,258.87073,753.5275Q250.74768,748.585,247.52356,743.7523Q243.04327,738.36127,238.88107,722.43164Q238.34335,721.4957,238.5307,726.62384Q241.70312,751.0786,260.26642,762.24243Q244.2218,758.3,235.50854,747.6049Q226.71094,736.50684,221.57445,718.57556Q222.30435,752.60944,254.03946,768.31305Q248.80606,770.3324,234.20532,757.1207Q237.33786,764.9773,246.0007,770.6118Q246.58963,772.79047,236.2089,766.9178Q229.02701,763.44055,216.52222,745.6824Q224.22086,765.7457,246.6503,775.9744Q239.96378,776.20074,223.75504,764.91223Q223.19357,765.65234,230.17535,773.44495Q230.26733,774.40753,227.65393,773.30066Q214.3483,767.2602,201.59195,746.16986Q209.29108,769.8215,238.05606,782.249Q220.09369,781.43384,206.68744,766.8595Q210.82068,775.96735,225.01978,785.2544Q225.48798,786.2181,224.06384,785.9632Q217.71924,784.95557,216.36084,784.4063Q200.52814,779.3764,187.69487,766.9207Q196.78462,779.43036,217.34064,790.943Q206.25018,791.2761,189.8882,785.84875Q189.31294,785.44214,189.7104,786.9344L192.7071,795.53687L198.43422,797.9864Q211.4695,804.0353,231.4483,804.5631Q225.59238,813.8902,228.35214,818.5504Q232.73334,808.4285,245.31927,804.53265L239.42355,812.25793Q237.98672,814.9506,237.22037,818.92706Q237.12216,820.5183,237.81772,819.8452Q243.66373,811.4892,247.98083,810.5983Q242.7125,818.7528,242.77957,823.0119Q257.48102,807.38245,272.4618,808.2952Q246.84824,818.27606,241.66916,841.0193Q241.21292,843.1059,241.90897,842.0192Q246.6271,830.8039,250.54703,826.35516Q252.52618,823.3669,259.42255,819.0975Q267.02856,815.31415,269.21942,815.82306Q251.60938,826.44,248.09384,846.5685Q255.83658,829.645,262.66452,824.35504Q271.72296,818.36444,274.16608,818.7884Q261.50632,830.10626,260.5897,839.8352Q266.1755,827.6866,270.64948,824.3865Q275.3775,820.9382,283.49207,819.45856Q263.7639,830.8665,262.15353,854.0728Q267.9332,829.9574,281.39496,825.25244Q283.11932,824.5522,283.16364,825.1433Q276.51666,834.41296,278.16687,840.2826Q285.37146,826.7958,293.7621,825.1757Q284.33093,835.28546,282.7497,839.8465Q278.5195,848.4547,279.83646,856.3949Q281.4435,843.5229,291.72064,835.0992Q293.16364,834.0003,292.90894,835.62897Q289.3502,843.9536,289.4233,848.92236Q289.29282,855.7699,290.59128,857.5674Q289.90207,845.0337,293.6092,839.9007Q294.9572,838.47125,294.86078,839.72723Q292.81223,851.8904,294.30704,856.15015Q295.25336,843.46234,297.3067,841.6769Q298.32745,840.1201,298.4532,841.39526Q297.22504,851.2139,298.0954,850.1624Q301.75067,838.9641,308.661,835.72186Q294.81943,855.21124,301.1041,874.51306Q298.25397,851.481,313.53125,838.07886Q314.24805,838.1883,314.0329,839.2544Q309.1209,845.97046,307.24472,856.784Q305.75186,862.24304,307.9819,873.6314Q308.89352,875.9779,308.92917,874.78955Q308.80252,860.5399,309.67722,856.9596Q310.1574,853.4676,312.78607,847.95374Q317.56628,839.7373,320.19592,838.659Q313.9649,852.8183,316.93097,863.523Q315.80475,843.416,328.40323,835.5684Q315.71057,855.7463,324.823,875.95325Q318.17035,855.02264,331.23105,838.88666Q331.9899,838.463,332.02628,839.99585Q330.6227,846.50684,331.01666,848.75214Q330.98273,850.3324,332.88647,855.18274Q333.3553,847.19183,334.99515,843.334Q340.15567,833.7418,342.0635,834.49164Q333.84918,853.3313,340.4939,867.15344Q337.72546,855.1149,343.97794,844.3926Q344.6221,844.1232,344.7769,845.1449Q344.97418,853.6243,347.45676,859.68787Q345.47684,846.4704,348.9175,843.59827Q350.83792,857.4018,356.31854,862.82245Q349.50485,851.63574,356.5873,838.2513L361.89603,850.6246Q363.25247,852.872,365.09433,853.51764Q357.59256,842.82715,360.31168,835.9688Q365.15738,849.39655,371.5774,851.1444Q362.3599,843.5013,363.54218,833.19867L371.1245,843.99274Q367.1443,831.596,369.47314,833.15894Q376.63025,843.82666,381.70056,848.79663Q373.90784,830.9843,375.00952,827.90106Q375.71478,827.6047,376.66687,829.17773Q384.63968,843.7996,386.2582,844.9045L381.89557,826.71094Q382.0127,825.2589,384.42136,828.3097L389.35922,836.0164Q389.921,833.51154,386.53998,822.9121Q395.08173,827.15546,397.932,837.04785Q398.33643,828.8129,391.17456,819.9874Q406.70074,823.94336,408.2461,833.4706Q409.03546,826.7814,401.14642,818.83295Q405.815,818.4933,414.58667,828.15643Q415.8493,828.1344,407.85522,816.65125Q407.37024,815.9197,407.8506,815.608Q413.6493,815.7957,422.99487,824.17554Q421.1093,819.413,412.3833,812.86395Q412.46924,810.8219,416.89886,812.61395Q421.01843,814.0429,425.3606,817.6975Q423.9165,813.0316,416.1338,809.29095Q415.6737,808.6241,416.56512,808.1637Q428.59814,806.9966,434.29822,813.5842Q434.78296,811.87787,428.66663,806.6224Q428.4253,805.32947,431.0271,804.9691Q446.67932,804.06415,466.09375,808.8625Q450.7398,797.74603,432.1631,799.8264Q427.85083,800.1195,416.28027,804.11523Q383.8321,819.1601,371.61243,821.47046Q356.30194,826.0058,326.17822,820.74274Q289.17184,810.81134,268.38406,791.829Q299.2563,772.35614,303.95312,771.477Q306.4011,770.47705,306.15268,771.0737Q306.57187,771.265,307.234,777.53546Q310.9492,779.9739,310.41086,780.49554Q310.82236,781.7505,308.11743,784.10986Q314.26013,796.82306,318.59528,800.55237Q329.3994,812.0362,343.86365,814.8544Q365.76917,818.5244,386.04333,800.454Q392.97412,793.8479,396.92834,784.06226Q398.1067,781.29736,398.95227,774.7444Q399.4147,769.6239,397.9636,765.05493Q397.9514,763.5784,398.67575,763.5827Q420.06427,768.3428,474.5716,802.862Q449.36237,772.4627,417.94766,754.1545L417.55228,752.8154Q421.38748,748.1477,421.04892,747.0707L414.6899,751.2728Q412.67075,751.69867,410.52005,750.5578Q409.4908,749.7784,409.75534,749.2996Q413.31998,743.31415,412.6885,741.54095Q407.74985,748.0347,405.5311,747.4908Q409.5015,739.11365,409.14005,736.5359L401.97202,742.74805Q400.9606,743.60223,399.15323,743.85785Q402.68814,736.0153,401.99844,732.8652Q395.72092,742.6838,393.54245,742.55963Q396.7551,732.0923,395.03043,729.40094Q392.36765,742.0779,386.38388,740.7644L386.77536,727.22144Q387.01822,725.77686,382.40744,735.1433Q381.57138,736.64465,381.00558,736.27374L381.5893,724.35266L374.69504,736.8464Q372.90024,734.90497,373.64923,721.7147Q371.24814,724.8033,368.3701,733.61145Q364.81943,726.7747,370.0296,712.4605Q368.6795,711.78845,363.5405,722.20197Q362.6816,723.417,363.55643,716.4303L357.71384,725.0684Q355.0482,719.78046,360.74835,708.36615Q361.01428,707.5716,359.17804,709.2159Q353.26715,713.01,351.14905,728.26447Q346.61084,719.04315,350.76422,709.1666Q348.9231,710.4353,346.1173,715.06525Q344.10962,718.7165,343.80255,723.88696Q343.46356,724.991,342.78088,724.23645Q338.8501,712.94244,345.24933,704.7864Q362.07892,703.3219,382.97662,710.9175Q418.52115,723.1554,464.5055,770.1878Q433.3171,728.5346,396.25436,709.07935Q362.72516,692.7331,329.9041,701.84595Q329.22913,701.4232,329.5254,699.44885L331.63754,688.5796Q329.63498,690.31836,324.6787,702.64484Q323.12158,705.0434,321.6289,704.6779Q319.00574,703.308,324.66428,684.84094Q318.77344,693.4989,317.58252,706.069Q316.53302,707.9177,311.94458,708.80054Q306.3993,697.8439,310.42685,683.2034Q303.94617,693.39886,306.05298,712.0167Q303.88943,715.9444,302.50024,707.83417L300.03787,716.1203Q294.54498,720.9858,293.34583,720.5725Q282.8222,706.0488,285.03604,684.9302Q279.55768,706.0973,288.6711,725.29333Q286.49948,726.98865,284.90927,723.5936Q281.07715,715.7923,279.5097,703.4916Q278.88165,702.31964,278.5091,705.6016Q278.76776,719.6071,284.07956,728.35266Q284.39645,729.454,283.03482,730.67737Q279.31918,730.2478,271.78406,717.06683L268.90973,709.87115L264.74774,693.41125Q264.4798,691.9556,264.2556,693.00165Q263.81635,703.0324,265.53464,708.07086Q269.72238,723.5287,278.65817,733.8663Q279.38327,735.2681,277.07565,735.4746Q259.5944,726.7529,255.24231,695.3034 Z"/> </g> <g style="fill:rgb(0,0,0); fill-opacity:1.0; stroke-linejoin: miter"> </g> <g style="fill:rgb(0,0,0); fill-opacity:1.0; stroke-linejoin: miter"> </g> <g style="fill:rgb(0,0,0); fill-opacity:1.0; stroke-linejoin: miter"> </g> <g style="fill:rgb(0,0,0); fill-opacity:1.0; stroke-linejoin: miter"> </g> <g style="fill:rgb(0,0,0); fill-opacity:1.0; stroke-linejoin: miter"> <path d="M350.1693,863.93915C350.43994,864.01935,350.75592,864.3837,350.8739,864.70123C350.99176,865.01874,350.70758,865.06415,350.19952,864.83124C349.76404,864.63165,349.44806,864.2673,349.49493,864.06915C349.5948,863.8514,349.93195,863.78644,350.1693,863.93915 Z"/> </g> <g style="fill:rgb(0,0,0); fill-opacity:1.0; stroke-linejoin: miter"> <path d="M373.89633,742.1745L377.3715,746.3162Q386.80435,759.8612,384.54675,775.5826Q382.22134,791.35846,368.623,801.8606Q355.0782,811.29346,339.35657,809.03595Q334.29468,808.2872,329.5266,806.24994L324.89905,803.8923Q320.37854,801.2133,316.5537,797.2541Q305.1584,784.77527,305.4775,768.9142Q305.79684,753.0532,317.68484,741.0428Q330.1638,729.6476,346.0249,729.9668Q361.88608,730.2861,373.89633,742.1745"/> </g> </g> </svg>