<?xml version="1.0" encoding="UTF-8"?>
<svg enable-background="new" viewBox="0 0 209.28038 102.5603" xmlns="http://www.w3.org/2000/svg">
 <defs>
  <filter id="a">
   <feGaussianBlur stdDeviation="1.5536"/>
  </filter>
  <filter id="c">
   <feGaussianBlur stdDeviation=".9882"/>
  </filter>
  <filter id="b" x="-.13316" y="-.1746" width="1.2663" height="1.3492">
   <feGaussianBlur stdDeviation="4.2217"/>
  </filter>
 </defs>
 <path transform="matrix(2.6613 0 0 2.6613 -7893 -3573.4)" d="m2974.3623,1345.4246c-1.8546.038-3.3895.3068-4.125.875-1.4144,1.0926-1.4144,1.0917 0,1.125 1.1742.028 1.2557.1496.375.7188-.7875.5089-.3746.7107 1.625.7187 1.6482.01 2.522-.2786 2.25-.7187-.9242-1.4954 6.1393-.097 7.9062,1.5625 1.5676,1.4727 1.6852,1.4619 1.25.1875-.3285-.9621.1659-.6766 1.5625.875 1.1161,1.2399 3.6178,2.8626 5.5625,3.625 5.6701,2.2226 6.1035,2.0432 3.9688-1.5938-.7979-1.3593-2.2669-2.427-4.3438-3.125-1.7357-.5833-4.5934-1.7021-6.3437-2.5-2.6008-1.1856-6.5965-1.8131-9.6875-1.75zm-1.6875,9.125c-1.349.011-1.1476.303-.3125,1 1.3653,1.1395 1.3411,1.1456-1.2188.9063-1.4586-.1364-2.6562.033-2.6562.3437s.5381.5631 1.2187.5938c.7204.033.883.2008.375.4062-.9744.3941 2.6374,3.7813 4.0313,3.7813 .453,0 .6171.327.375.7187s.1384.9028.8437,1.125 2.1239.8533 3.1563,1.4063 3.1799,1 4.75,1 3.0464.3507 3.3125.7812c.3492.5651.6329.5627 1-.031 .3187-.5157 1.6263-.6946 3.5-.4687l3,.375-1.5-2.5313c-1.7767-3.0112-1.2443-4.1543.7812-1.6562l1.4375,1.7812-1.1875-2.125c-.6446-1.1669-1.56-2.6404-2.0312-3.2812-1.2387-1.6845-7.6075-3.3804-14.5625-3.875-2.1375-.1521-3.5031-.2568-4.3125-.25zm48.9063,5.25c-5.409.01-7.826,1.6134-3.4063,3.0313 3.3089,1.0614 5.9486,1.8675 8.625.75l3.9063.094c3.0896.084 4.4713.5041 6.7187,2.125 3.4006,2.4525 5.4741,2.8967 3.5313.75-.704-.7779-1.7859-1.4381-2.4063-1.4688-.822-.041-.8465-.1622-.1562-.4375 .9309-.3713.43-.7622-3.8125-3.0625-.5717-.3103-1.1179-.4212-1.8438-.3125-1.8362-.4358-3.5937-.7589-6.9687-1.1875-1.5164-.1926-2.9393-.2827-4.1875-.2812zm-2.0313,6.8438c-1.3121.1323-2.2414.7282-3.4062,1.8125-1.127,1.049-1.5123,1.6912-.8438,1.4375s1.4264-.1533 1.6563.2187 .1188.6875-.2188.6875-1.2137.492-1.9687,1.0938c-1.3011,1.037-1.2703,1.0483.7812.6562 1.6866-.3224 2.4626-.052 3.5313,1.1875l1.375,1.5938-2.125-1.2813c-2.0936-1.2638-2.0856-1.2579.3125,1.0625 1.798,1.7398 3.2682,2.4686 5.6562,2.75 6.3789.7516 9.25.6973 9.25-.1562 0-.6312.201-.6428.8438,0 1.1802,1.1802 2.3381,1.0732 1.3437-.125-.9063-1.0921.2191-1.805 3-1.9063 1.66-.06 1.2783-.2641-2-1.0312-1.8893-.4422-1.9783-.543-.7187-1.0313 1.3236-.5131 1.2869-.5874-.4688-1.2812-1.0318-.4078-2.1049-1.0943-2.375-1.5313-.5896-.954-2.9315-1.9152-7.9687-3.25-2.6426-.7002-4.3442-1.0386-5.6563-.9062z" filter="url(#c)" opacity=".7774"/>
 <g transform="translate(-2900.5 -1310.7)">
  <path d="m3030.8696,1379.9556c2.9951-4.0234 7.5037-12.5456 25.0111-6.742l12.6469,3.2253c2.4847.4625 4.2138-.2209 5.9753-.8588-.8804.7821-1.5518,1.597-3.5497,2.2038 1.5058.2725 7.3815,1.7568 8.4428,1.2673-.7885.4746-1.098,1.0116-2.8705,1.3565 5.0797,1.5881 5.5162,3.625 8.2081,3.6791-2.3023,1.4709-3.8211-.3433-5.4927.064 4.7164,1.8622 8.8713,3.3664 8.8713,3.3664s-3.5122.2981-8.0215-1.7192c2.558,1.7325 6.2334,2.7574 9.7572,2.78-2.2413.8319-5.4552,2.3452-5.4552,2.3452 .056.4769 2.8061,1.3384 4.5493,1.7538 3.1747.7569 5.5186,1.0198 7.9659,2.2765-7.4352.6606-11.1004,1.3972-11.3546,2.6174-.6464,3.1018 2.7598,6.8022 5.1106,7.4398-2.1788-.1916-5.781-2.0458-8.5072-4.4851-1.1247-1.2964-2.0716-1.1391-1.7533.6485 1.6931,1.6902 2.0194,3.3389 2.343,4.6353-1.8821-2.029-3.517-3.2554-4.2094-3.5529-.9507-.4083-.3907.9333 1.333,4.3521-1.7756-2.6893-3.0419-3.2657-5.6135-3.8433 1.2417,1.76.6573,2.5379 1.1103,4.717-2.9959-3.7719-3.0795-4.8239-6.8666-5.2907 .8634,1.0405-.1517,3.3458.3556,4.6778-1.9521-2.5892-1.7906-4.4825-5.0249-5.1329 1.2876,1.6918.082,3.9481.3159,5.9624-1.1893-2.6131-2.615-5.1244-4.7755-6.5852 .5892,1.0755.5855,2.3995.6108,3.2216-1.1886-2.3995-2.0511-2.8519-5.0276-3.5511 .7524,1.0478 0,2.0181 0,2.0181 .3789-.064-1.7629-1.1108-4.7292-2.6469-1.8105-.9376-4.0032-1.1604-5.9676-3.2455-1.2822-1.3608-3.0754-2.3609-4.3648-3.5894-2.4099-2.2962-3.9668-4.7587-3.9668-4.7587s2.0695,1.9505 9.4694,5.8171c-3.4582-3.2891-1.2778-2.7337-5.5782-6.2738-3.026-2.8453-12.1498-.2896-12.1498-.2896s2.145-2.4402 4.686-4.1756c1.5692-1.072 4.0754-1.3666 3.9678-2.1746-.3494-2.6294-5.4499-1.5079-5.4499-1.5079z" fill-rule="evenodd" stroke="#000" stroke-width=".1149"/>
  <path d="m3037.3 1381.5c9.1159 17.836 28.104 15.777 37.243 13.462-9.5401-16.737-22.491-18.012-37.243-13.462z" fill="#666" fill-rule="evenodd" opacity=".6007"/>
  <path d="m3038.2 1381.4c15.328-2.1525 29.899 5.6197 35.258 12.444-13.178 1.5334-28.154-3.6349-35.258-12.444z" fill="#808080" fill-rule="evenodd" opacity=".636"/>
  <path d="m3034.1 1382c0.027 0 0.051 0.027 0 0z" fill="none" stroke="#000" stroke-width=".12407"/>
  <path d="m3049.4434,1394.2733c-.7183-1.4837 9.6006-6.639 14.3218-7.0493 2.0766-.181 4.2046,2.6118 4.577,2.2142 .5423-.5799-2.2318-3.6569-.8283-3.2734 3.2817.8966 6.0131,7.2266 5.9532,7.9693-.1437,1.7776-23.2591,1.7185-24.0237.1384z" fill="#e6e6e6" fill-rule="evenodd"/>
  <path transform="matrix(.12186 .05472 -.05143 .11455 3034.9 1321.2)" d="m374 417.86c0 37.607-33.368 68.093-74.53 68.093s-74.53-30.486-74.53-68.093 33.368-68.093 74.53-68.093 74.53 30.486 74.53 68.093z" fill-rule="evenodd" opacity=".6007" stroke="#000"/>
  <path transform="matrix(.22443 .10077 -.11642 .25927 3016.2 1236.8)" d="m403.14 428.36c0 13.097-13.954 23.714-31.167 23.714s-31.167-10.617-31.167-23.714 13.954-23.714 31.167-23.714 31.167 10.617 31.167 23.714z" fill="#216778" filter="url(#b)" opacity=".6007" stroke="#000"/>
  <path transform="matrix(.09055 .04066 -.04083 .09094 3030.7 1331.6)" d="m421.43 408.71c0 14.594-12.134 26.424-27.102 26.424s-27.102-11.831-27.102-26.424 12.134-26.424 27.102-26.424 27.102 11.831 27.102 26.424z" opacity=".6007"/>
  <path d="m3054.1668,1383.7294c.8907.9591.7872,1.8182.7659,2.6858-1.5359,6.289-6.0865,5.3171-8.3449,4.449-3.2657-2.0804-5.5699-6.1528-.783-10.3348 .404-.4102 1.9101-.3263 2.5406-.029-4.4413,3.1321-2.6675,6.1708-.5938,7.4983 3.2178,1.4164 5.8158.4194 6.4152-4.268z" fill="#d5fff6" fill-rule="evenodd" opacity=".2644"/>
  <path transform="matrix(.07569 .03399 -.03399 .07569 3029.9 1358.5)" d="m298.96 157.84c-14.833 41.799-4.2184 61.967 16.939 73.175 40.627 18.427 81.22 1.9563 84.016-37.265-15.996 66.343-125.57 49.465-100.95-35.91z" fill="#d5fff6" fill-rule="evenodd" filter="url(#a)" opacity=".6007"/>
  <g transform="matrix(.07926 .03559 -.02764 .06155 3013.4 1349.2)" fill="#fff" fill-rule="evenodd" opacity=".6007">
   <path d="m508.02 261.68-9.2841-0.33382-13.056 2.9976 13.214-0.34439 9.1258-2.3194z"/>
   <path d="m566.73 306.45-1.1742 9.279 2.9354 13.256 0.20843-4.7062 0.37866-8.5495-2.3484-9.279z"/>
   <path d="m532.12 306.87-4.3546 8.2272-1.9034 13.38 5.2003-12.138 1.0577-9.4693z"/>
   <path d="m544.3 310.85-1.1744 9.2342 2.9359 13.192 0.58718-13.192-2.3487-9.2342z"/>
   <path d="m516.95 297.19-7.0687 6.0566-6.6782 11.749 9.2898-9.3843 4.4572-8.4214z"/>
   <path d="m574.27 299.67 0.96871 8.7831 6.3522 10.47-2.5582-12.056-4.7627-7.1965z"/>
   <path d="m580.73 291.94 4.6589 8.0588 10.327 8.718-7.5232-10.852-7.4622-5.9248z"/>
   <path d="m509.59 286.63-6.9782 6.1327-7.4323 11.144 9.3693-9.3243 5.0412-7.9528z"/>
   <path d="m505.79 277.57-8.5061 3.8519-8.987 10.305 11.404-6.6379 6.0895-7.5193z"/>
   <path d="m506.39 251.66-8.1014-4.5467-12.98-3.3113 11.906 5.7427 9.1753 2.1153z"/>
   <path d="m511.42 238.41-6.0919-7.0383-11.782-6.6194 9.4306 9.2428 8.4436 4.415z"/>
   <path d="m503.02 273.51-9.3307-0.12437-12.85 2.5215 13.216-0.4603 8.9648-1.9368z"/>
  </g>
  <path d="m3051.3 1382.1c3.2875-2.0141 9.5063 2.3454 9.7474 5.0544-1.4893 2.8913-11.241-3.1715-9.7474-5.0544z" fill="#fff" fill-rule="evenodd" opacity=".4854"/>
  <path transform="matrix(.07569 .03399 -.03399 .07569 3035.6 1332.7)" d="m440.4 441.91c0 6.7356-7.2803 12.196-16.261 12.196s-16.261-5.4602-16.261-12.196 7.2803-12.196 16.261-12.196 16.261 5.4602 16.261 12.196z" fill="#fff" opacity=".4806"/>
  <path d="m2975.8943,1364.1089c0,0-3.7419-12.6568-11.6218-16.7181-7.3408-2.8468-14.4006-6.1623-23.257-6.4833-2.2664-1.1185-3.241-2.7017-4.269-4.2679 .2368,1.1536.2853,2.2083 1.5212,3.8914-1.369-.6843-6.9621-3.0169-7.5186-4.0447 .3468.8524.2728,1.4677 1.485,2.8061-5.0182-1.7727-6.5881-.4035-8.7757-1.9734 .9618,2.557 3.2649,2.0149 4.359,3.3426-4.8916-1.3357-9.1191-2.6211-9.1191-2.6211s2.6329,2.3433 7.452,3.4305c-3.0863-.1464-6.6427-1.5279-9.4773-3.6213 1.2958,2.009 1.7725,6.2363 1.7725,6.2363-5.3826-1.732-9.6485.8388-14.1193.3854 5.5567,4.9844 10.9235,2.022 10.3958,3.151-1.3411,2.8708-6.7811,2.107-9.0451,1.2088 1.8592,1.1523 4.268,3.9079 7.9124,3.5888 1.6772-.3641 2.7377.2289 1.4116,1.4704-2.3683.3385-3.3203.4718-4.8516.7212 2.7225.6927 6.6493.7899 7.382.9666 1.0057.2422-.2475.9812-3.6751,2.6853 3.0329-1.089 4.3921-.7918 6.7971.2872-2.049.6648-2.0471,1.6377-3.7155,3.1108 4.6587-1.2245 3.9683-2.2148 7.2799-.318-1.3148.3156-3.9647,2.3731-5.1689,3.1356 3.1143-.9033 7.5883-1.9213 10.5674-.5038-2.0447.5831-6.1983,1.7237-7.5923,3.1965 2.5182-1.3794 8.9307-1.1478 11.5356-1.0225-1.1162.5078-6.5647,1.3717-7.0776,2.0147 2.3894-1.2086 8.0091-.8557 10.8109.3686-1.23.3877-5.8658,2.5088-5.8658,2.5088-.2662-.2784 6.735-.7244 10.0303-.1783 2.0112.3343 3.9992-1.5034 6.8213-1.9955 6.3212.8075 7.7844,3.9705 7.7844,3.9705s1.7102-3.8079 6.7952-3.4033c4.1275.5266 11.0896,1.1023 11.0896,1.1023-1.7131-6.16-8.8764-12.2765-5.8978-14.2342 1.6455-1.0816 7.8443,7.8049 7.8443,7.8049z" fill-rule="evenodd" stroke="#000" stroke-width=".1149"/>
  <path d="m2964.9 1363.2c-17.986 8.8163-31.953-4.211-37.882-11.54 17.667-7.6822 28.799-0.9421 37.882 11.54z" fill="#666" fill-rule="evenodd"/>
  <path d="m2963.7 1362.7c-10.981-10.908-27.303-13.418-35.683-11.165 9.6311 9.1247 24.717 13.961 35.683 11.165z" fill="#808080" fill-rule="evenodd"/>
  <path d="m2966.4 1366.3c-0.027-0.027-0.056 0 0 0z" fill="none" stroke="#000" stroke-width=".12407"/>
  <path d="m2964.5 1364.2c0.6802-2.516-5.1013-9.2255-8.9137-9.1933-1.6622 0.027-4.2004 1.3815-7.0863 4.0985-3.5143 3.3085-8.6694 1.8581-8.6002 3.67 0.043 1.1294 6.1728 2.8582 12.492 3.1004 5.8486 0.2236 11.917-0.9676 12.108-1.6756z" fill="#e6e6e6" fill-rule="evenodd"/>
  <g transform="matrix(2.6613 0 0 2.6613 -4992.5 -2263.2)">
   <path transform="matrix(.04898 -.01098 .01032 .04604 2961.3 1343.4)" d="m374 417.86c0 37.607-33.368 68.093-74.53 68.093s-74.53-30.486-74.53-68.093 33.368-68.093 74.53-68.093 74.53 30.486 74.53 68.093z" fill-rule="evenodd" opacity=".6007" stroke="#000"/>
   <path transform="matrix(.0902 -.02022 .02336 .10421 2936.7 1322.2)" d="m403.14 428.36c0 13.097-13.954 23.714-31.167 23.714s-31.167-10.617-31.167-23.714 13.954-23.714 31.167-23.714 31.167 10.617 31.167 23.714z" fill="#216778" filter="url(#b)" opacity=".6007" stroke="#000"/>
   <path transform="matrix(.0364 -.00816 .00819 .03655 2962.4 1347.4)" d="m421.43 408.71c0 14.594-12.134 26.424-27.102 26.424s-27.102-11.831-27.102-26.424 12.134-26.424 27.102-26.424 27.102 11.831 27.102 26.424z" opacity=".6007"/>
   <path d="m2981.1666,1357.8462c.484.088.6463.3698.8352.6355 .9541,2.2376-.6336,2.97-1.5085,3.2174-1.4507.1095-3.0608-.5967-2.5625-2.9326 .029-.2144.501-.5283.7573-.5811-.6307,1.9421.5871,2.4568 1.5098,2.3892 1.2869-.2985 1.844-1.1833.9687-2.7284z" fill="#d5fff6" fill-rule="evenodd" opacity=".2644"/>
   <path transform="matrix(.03042 -.00682 .00682 .03042 2968.2 1355.7)" d="m298.96 157.84c-14.833 41.799-4.2184 61.967 16.939 73.175 40.627 18.427 81.22 1.9563 84.016-37.265-15.996 66.343-125.57 49.465-100.95-35.91z" fill="#d5fff6" fill-rule="evenodd" filter="url(#a)" opacity=".6007"/>
   <g transform="matrix(.03186 -.00714 .00555 .02474 2961.1 1356.6)" fill="#fff" fill-rule="evenodd" opacity=".6007">
    <path d="m508.02 261.68-9.2841-0.33382-13.056 2.9976 13.214-0.34439 9.1258-2.3194z"/>
    <path d="m566.73 306.45-1.1742 9.279 2.9354 13.256 0.20843-4.7062 0.37866-8.5495-2.3484-9.279z"/>
    <path d="m532.12 306.87-4.3546 8.2272-1.9034 13.38 5.2003-12.138 1.0577-9.4693z"/>
    <path d="m544.3 310.85-1.1744 9.2342 2.9359 13.192 0.58718-13.192-2.3487-9.2342z"/>
    <path d="m516.95 297.19-7.0687 6.0566-6.6782 11.749 9.2898-9.3843 4.4572-8.4214z"/>
    <path d="m574.27 299.67 0.96871 8.7831 6.3522 10.47-2.5582-12.056-4.7627-7.1965z"/>
    <path d="m580.73 291.94 4.6589 8.0588 10.327 8.718-7.5232-10.852-7.4622-5.9248z"/>
    <path d="m509.59 286.63-6.9782 6.1327-7.4323 11.144 9.3693-9.3243 5.0412-7.9528z"/>
    <path d="m505.79 277.57-8.5061 3.8519-8.987 10.305 11.404-6.6379 6.0895-7.5193z"/>
    <path d="m506.39 251.66-8.1014-4.5467-12.98-3.3113 11.906 5.7427 9.1753 2.1153z"/>
    <path d="m511.42 238.41-6.0919-7.0383-11.782-6.6194 9.4306 9.2428 8.4436 4.415z"/>
    <path d="m503.02 273.51-9.3307-0.12437-12.85 2.5215 13.216-0.4603 8.9648-1.9368z"/>
   </g>
   <path d="m2980.9 1357.5c1.2899-0.6592 3.4934 1.1543 3.505 2.1762-0.6416 1.0398-4.1192-1.5141-3.505-2.1762z" fill="#fff" fill-rule="evenodd" opacity=".4854"/>
   <path transform="matrix(.03042 -.00682 .00682 .03042 2964.1 1346.7)" d="m440.4 441.91c0 6.7356-7.2803 12.196-16.261 12.196s-16.261-5.4602-16.261-12.196 7.2803-12.196 16.261-12.196 16.261 5.4602 16.261 12.196z" fill="#fff" opacity=".4806"/>
  </g>
  <path d="m2922.7568,1314.8035c-4.9357.1011-9.0206.8165-10.978,2.3287-3.7642,2.9078-3.7642,2.9054 0,2.994 3.1249.075 3.3416.3981.998,1.913-2.0958,1.3543-.9969,1.8914 4.3247,1.9127 4.3864.027 6.7119-.7415 5.988-1.9127-2.4596-3.9798 16.3388-.2582 21.0411,4.1583 4.1719,3.9194 4.4849,3.8906 3.3267.499-.8743-2.5605.4415-1.8007 4.1583,2.3287 2.9704,3.2998 9.628,7.6183 14.8038,9.6474 15.09,5.9151 16.2435,5.4376 10.5623-4.2417-2.1235-3.6176-6.033-6.4591-11.5603-8.3167-4.6193-1.5524-12.2247-4.5299-16.8828-6.6534-6.9216-3.1552-17.5555-4.8252-25.7818-4.6573zm125.6655,38.2568c-14.3952.027-20.8277,4.2941-9.0654,8.0673 8.8062,2.8248 15.8313,4.9704 22.9541,1.996l10.396.2502c8.2225.2236 11.8997,1.3416 17.8808,5.6554 9.0502,6.5269 14.5684,7.7091 9.398,1.996-1.8736-2.0703-4.7529-3.8273-6.404-3.909-2.1876-.1091-2.2528-.4317-.4157-1.1643 2.4774-.9882 1.1444-2.0285-10.1464-8.1504-1.5215-.8258-2.9751-1.121-4.907-.8317-4.8867-1.1598-9.564-2.0197-18.5461-3.1603-4.0356-.5126-7.8224-.7524-11.1443-.7484z"/>
 </g>
</svg>
