<?xml version="1.0" encoding="UTF-8"?>
<svg viewBox="0 0 744.09448 1052.3622" xmlns="http://www.w3.org/2000/svg">
 <path d="m58.625 402.47c-3.1265 0.07186-6.0348 0.35751-8.6562 0.84375-3.495 0.64824-6.5087 1.6458-8.8438 3.0312-10.058 5.9674-9.2126 8.1689 1.7812 4.625 7.4273-2.3942 8.7455-2.1161 8 1.5312-1.0619 5.1957 4.5164 4.7164 10.625-0.90625 2.3252-2.1402 6.2321-3.3854 9.0312-2.8438 4.5369 0.87796 4.4432 1.2556-0.84375 4.6562-5.588 3.5946-5.3896 3.748 5.9062 4.9375 6.4302 0.67678 11.655 1.0906 11.625 0.90625s2.9435-1.3734 6.5938-2.6875c8.7673-3.1568 7.8725-6.119-2.7812-9.25-11.705-3.4401-23.058-5.0593-32.438-4.8438zm623.28 5.7188c-9.3796-0.21559-20.764 1.4349-32.469 4.875-10.654 3.131-11.517 6.0932-2.75 9.25 3.6503 1.3141 6.6232 2.4717 6.5938 2.6562s5.1948-0.22947 11.625-0.90625c11.296-1.1895-0.7806-6.9195 24.719-5.8125 3.7193 0.16287 0.57268-3.9567 8-1.5625 10.994 3.544 11.839 1.3424 1.7812-4.625-2.335-1.3854-5.3488-2.383-8.8438-3.0312-2.6214-0.48624-5.5297-0.77189-8.6562-0.84375zm-563.88 11.406c-0.49977 0.00611-1.0124 0.08461-1.5312 0.25-1.0372 0.33072-2.0373 1.0108-2.75 1.8438-1.4249 1.6657-4.6997 3.7868-7.2812 4.8125-4.2029 1.6701-3.7053 2.6562 5.0312 8.875 10.099 7.188 26.862 15.292 30.219 14.625 1.0553-0.20975 4.5714 1.6781 7.7812 4.2188 11.617 9.1952 61.756 41.027 63.938 40.594 1.23-0.24452 2.3457 0.65825 2.5625 2 0.04008 0.24848-0.96203 0.12224-1.4062 0.1875l28.281 13.625 34.469 10.344c-3.7692-3.0622-4.7667-4.9497 0.25-4.375 2.6602 0.30472 5.835-1.1904 7.0625-3.3438 1.7451-3.0616-0.56191-5.7104-10.594-12.094-7.0562-4.4901-13.65-7.9624-14.719-7.75s-5.0367-2.4623-8.7188-5.9688-7.8339-6.1565-9.25-5.875-8.4737-2.7852-15.688-6.75c-29.435-16.179-83.455-44.763-89.812-47.562-3.7388-1.6461-9.6195-2.5067-13.062-1.8438-4.4547 0.85751-5.3617 0.40379-3.2188-1.5938 2.1893-2.0408 2.122-3.0936-0.15625-3.9688-0.43073-0.16553-0.90648-0.25611-1.4062-0.25zm515.59 0c-0.49977-0.00611-0.97553 0.08447-1.4062 0.25-2.2783 0.87514-12.355 7.9789-16.094 9.625-6.3579 2.7995-60.721 29.165-90.156 45.344-7.2138 3.9648-14.271 7.0316-15.688 6.75s-5.568 2.3686-9.25 5.875-7.6188 6.1812-8.6875 5.9688-7.6938 3.2599-14.75 7.75c-10.032 6.3833-12.308 9.0322-10.562 12.094 1.2275 2.1534 9.0509 1.5857 7.0312 3.3438-5.6754 4.9401 4.0192 1.3128 0.25 4.375 1e-5 -1e-5 1.5349 5.09 33.5-11.594 31.965-16.684 43.253-24.314 94.344-55.156 3.5045-2.1156 6.7572-4.4285 7.8125-4.2188 3.3566 0.66733 20.12-7.437 30.219-14.625 8.7365-6.2188 9.2029-7.2049 5-8.875-2.5816-1.0257-5.8563-3.1468-7.2812-4.8125-0.71271-0.8329-1.6816-1.513-2.7188-1.8438-0.51884-0.16539-1.0627-0.24389-1.5625-0.25zm-506.47 58.906c-0.51941-0.10322-0.94828-0.10082-1.2812 0.03125-0.44396 0.1761-0.75122 0.57411-0.875 1.1562-0.54027 2.5466-1.6247 2.7981-4.4688 1.0312-4.1817-2.5979-9.6572 0.44455-6.875 3.8125 0.96633 1.1699 0.62347 2.2796-0.75 2.4688s-3.3683-0.68076-4.4062-1.9375c-2.3438-2.8372-23.405-0.13427-24.875 3.1875-1.0588 2.3922-15.699 2.0923-21.344-0.40625-1.5926-0.70497-6.8856 1.6046-11.719 5.125-7.7939 5.6768-9.197 6.0801-12.156 3.0312-2.7679-2.8517-3.1797-2.3357-2.4062 3.2812 0.52968 3.8474 3.5121 8.3952 6.875 10.5 4.4235 2.7689 4.9698 3.8602 2.1875 4.375-2.4106 0.44608-0.78294 2.5367 4.625 5.9062 6.2306 3.8821 7.0236 4.9786 3.1562 4.4688-2.8511-0.37587-0.34612 1.0386 5.5312 3.0625 7.0555 2.4296 13.33 2.8269 18.438 1.2188 4.2553-1.3396 8.5994-1.3799 9.6875-0.0625 1.259 1.5246 4.068 0.28212 7.6562-3.4375 3.1009-3.2142 9.6668-7.092 14.562-8.625s10.453-3.5063 12.438-4.3438c2.9887-1.2614 3.8965 1.2928 5.0312 14.594 1.1786 13.816 2.4635 17.368 9.3125 25.5 20.287 24.088 52.128 20.66 70.281-7.5938l7.2188-11.25 5.875 5.3125c3.2474 2.8862 9.4747 9.2201 13.812 14.156l7.8438 9.0312-4.5 4.8125c-2.4923 2.6576-11.406 7.1998-19.844 10.125-13.091 4.5385-14.48 5.5868-9.25 6.7812 3.3709 0.76986 8.763 0.25945 11.969-1.0312 6.8298-2.7497 7.7626-0.47434 2.8125 6.7812-5.0028 7.3332 1.0451 12.242 7.9688 6.4688 3.5976-3.0001 5.6433-3.3092 8.6562-1.4375 2.1593 1.3412 3.3976 3.5534 2.8125 4.875-0.58489 1.3216 0.00481 2.2113 1.3125 2.0312s2.7602-2.0906 3.25-4.1875c0.66733-2.855 4.8839-4.22 16.719-5.4688 15.45-1.6302 15.772-1.833 15.625-8.5312-0.08269-3.7685-1.6992-8.9861-3.5938-11.594-2.7765-3.8224-2.6846-4.7931 0.40625-5.2188 2.1089-0.29043 3.9848 0.65326 4.1875 2.125 0.43438 3.1549 5.2745 6.7803 13.625 10.125 5.0033 2.004 6.2308 1.7207 6.9688-1.4375 0.48808-2.0891-0.67122-5.9083-2.5312-8.4688s-3.7959-7.5069-4.2812-11.031-1.7111-6.117-2.7188-5.8125c-4.8152 1.4551-6.575 0.23815-3.5-2.375 4.8004-4.0795-0.97918-10.492-10.531-11.688-4.0738-0.50971-10.152-3.4183-13.531-6.4062-8.2202-7.2693-65.396-33.188-76.406-34.656-5.1914-0.69221-8.9918-2.7352-9.3125-5.0625-0.36455-2.6469-2.0412-3.3029-5.1875-2-2.7038 1.1198-5.4114 0.51383-6.4688-1.4062-1.9637-3.5671-7.1114-2.7842-9.3438 1.4375-0.75632 1.4308-3.2699-0.21419-5.4688-3.6875-4.4946-7.0998-8.4718-7.8755-7.5938-1.5 0.45279 3.2884-1.3264 2.8218-8.2188-2.0625-3.4159-2.4207-5.848-3.7841-7.4062-4.0938zm497.34 0c-1.5582 0.30967-3.9591 1.6731-7.375 4.0938-6.8924 4.8843-8.7028 5.3509-8.25 2.0625 0.87807-6.3755-3.0992-5.5998-7.5938 1.5-2.1989 3.4733-4.6812 5.1183-5.4375 3.6875-2.2324-4.2217-7.3801-5.0046-9.3438-1.4375-1.0574 1.9201-3.7962 2.526-6.5 1.4062-3.1463-1.3029-4.823-0.64694-5.1875 2-0.32068 2.3273-4.0899 4.3703-9.2812 5.0625-11.01 1.4681-68.217 27.387-76.438 34.656-3.379 2.9879-9.4575 5.8965-13.531 6.4062-9.5521 1.1952-15.3 7.608-10.5 11.688 3.075 2.6132 1.284 3.8301-3.5312 2.375-1.0077-0.3045-2.2022 2.2881-2.6875 5.8125s-2.4525 8.4706-4.3125 11.031-3.0193 6.3797-2.5312 8.4688c0.73792 3.1582 1.9654 3.4415 6.9688 1.4375 8.3505-3.3447 13.222-6.9701 13.656-10.125 0.2027-1.4717 2.0786-2.4154 4.1875-2.125 3.0908 0.42561 3.1514 1.3964 0.375 5.2188-1.8946 2.6077-3.4798 7.8253-3.5625 11.594-0.14698 6.6982 0.14338 6.901 15.594 8.5312 11.835 1.2488 16.083 2.6137 16.75 5.4688 0.48984 2.0969 1.9421 4.0074 3.25 4.1875s1.8974-0.70966 1.3125-2.0312c-0.58514-1.3216 0.6532-3.5338 2.8125-4.875 3.013-1.8717 5.0274-1.5626 8.625 1.4375 6.9236 5.7737 12.972 0.86445 7.9688-6.4688-4.9501-7.2556-3.9861-9.5309 2.8438-6.7812 3.2058 1.2907 8.5666 1.8011 11.938 1.0312 5.23-1.1945 3.8412-2.2428-9.25-6.7812-8.4375-2.9252-17.351-7.4674-19.844-10.125l-4.5-4.8125 7.8438-9.0312c4.3378-4.9361 10.565-11.27 13.812-14.156l5.9062-5.3125 7.1875 11.25c18.154 28.254 49.995 31.681 70.281 7.5938 6.849-8.1322 8.1339-11.684 9.3125-25.5 1.1348-13.301 2.0425-15.855 5.0312-14.594 1.9843 0.83742 7.5731 2.8107 12.469 4.3438s11.462 5.4108 14.562 8.625c3.5883 3.7196 6.366 4.9621 7.625 3.4375 1.0881-1.3174 5.4322-1.2771 9.6875 0.0625 5.1079 1.6081 11.413 1.2108 18.469-1.2188 5.8774-2.0239 8.3511-3.4384 5.5-3.0625-3.8673 0.5098-3.0743-0.58669 3.1562-4.4688 5.408-3.3696 7.0356-5.4602 4.625-5.9062-2.7822-0.51483-2.2047-1.6061 2.2188-4.375 3.3628-2.1048 6.3141-6.6526 6.8438-10.5 0.77348-5.6169 0.36163-6.1329-2.4062-3.2812-2.9592 3.0488-4.3624 2.6456-12.156-3.0312-4.8331-3.5204-10.095-5.83-11.688-5.125-5.6447 2.4986-20.316 2.7984-21.375 0.40625-1.4703-3.3218-22.5-6.0247-24.844-3.1875-1.038 1.2567-3.0325 2.1267-4.4062 1.9375s-1.7476-1.2989-0.78125-2.4688c2.7822-3.368-2.6933-6.4104-6.875-3.8125-2.844 1.7668-3.9285 1.5153-4.4688-1.0312-0.12381-0.58214-0.43104-0.98015-0.875-1.1562-0.33296-0.13207-0.76184-0.13447-1.2812-0.03125zm-484.94 35.781c7.0971 0.02543 11.391 9.8287 5.6875 12.969-3.0157 1.6603-2.8509 3.055 0.875 9.3438 4.7989 8.0996 10.034 10.208 22.125 8.8125 10.497-1.2116 19.429-7.0421 20.156-13.125 0.95649-8.0019 5.9149-6.207 7.0312 2.5312 1.8618 14.574-6.55 22.957-25.75 25.719-10.149 1.46-14.273 0.70418-21.594-3.9375-9.1676-5.8127-17.9-23.621-11.969-24.438 1.6659-0.22942 1.7105-3.6832 0.03125-9.1562-1.8782-6.1211-2.2511-7.9575 0.09375-8.5 0.78154-0.18084 1.8924-0.22382 3.3125-0.21875zm472.56 0c1.4201-0.00507 2.531 0.03791 3.3125 0.21875 2.3448 0.54254 1.972 2.3789 0.09375 8.5-1.6793 5.4731-1.6659 8.9268 0 9.1562 5.9314 0.81681-2.7699 18.625-11.938 24.438-7.3207 4.6417-11.476 5.3976-21.625 3.9375-19.2-2.7622-27.581-11.145-25.719-25.719 1.1163-8.7382 6.0748-10.533 7.0312-2.5312 0.72684 6.0829 9.6275 11.913 20.125 13.125 12.091 1.3954 17.326-0.71289 22.125-8.8125 3.7259-6.2888 3.922-7.6834 0.90625-9.3438-5.7039-3.14-1.4096-12.943 5.6875-12.969z"/>
</svg>
